<?xml version="1.0" encoding="utf-8"?>
<!-- Generator: Adobe Illustrator 19.2.1, SVG Export Plug-In . SVG Version: 6.00 Build 0)  -->
<svg version="1.1" xmlns="http://www.w3.org/2000/svg" xmlns:xlink="http://www.w3.org/1999/xlink" x="0px" y="0px"
	 viewBox="0 0 380 220" style="enable-background:new 0 0 380 220;" xml:space="preserve">
<style type="text/css">
	.st0{fill:#434345;}
	.st1{fill:#EF5023;}
	.st2{fill:#D4D2D3;}
	.st3{fill:#75787B;}
	.st4{display:none;}
	.st5{display:inline;}
	.st6{fill-rule:evenodd;clip-rule:evenodd;fill:#75787B;}
	.st7{fill-rule:evenodd;clip-rule:evenodd;fill:#A9A7A9;}
	.st8{fill:none;stroke:#A9A8A9;stroke-width:0.2455;stroke-miterlimit:10;}
	.st9{fill-rule:evenodd;clip-rule:evenodd;fill:#EF5023;}
	.st10{fill:#232020;}
	.st11{fill:#77777A;stroke:#434345;stroke-width:1.7487;stroke-miterlimit:10;}
</style>
<g id="Layer_1">
	<g>
		<path class="st0" d="M283.8,96.7c0,51.8-42,93.7-93.7,93.7c-51.8,0-93.7-42-93.7-93.7C96.3,45,138.3,3,190.1,3
			C241.9,3,283.8,45,283.8,96.7"/>
		<path class="st1" d="M218,37.7h-54.9c-5.7,0-10.4,4.9-10.4,10.9v99.3c0,6,4.7,10.9,10.4,10.9H218c5.7,0,10.4-4.9,10.4-10.9V48.5
			C228.4,42.5,223.7,37.7,218,37.7 M220.8,147.9c0,1.8-1.3,3.3-2.8,3.3h-54.9c-1.6,0-2.8-1.5-2.8-3.3v-15.6h60.5V147.9z
			 M220.8,124.7h-60.5V67.9h60.5V124.7z M220.8,60.4h-60.5V48.5c0-1.8,1.3-3.3,2.8-3.3H218c1.6,0,2.8,1.5,2.8,3.3V60.4z
			 M190.5,147.4c3.1,0,5.7-2.5,5.7-5.7c0-3.1-2.5-5.7-5.7-5.7c-3.1,0-5.7,2.5-5.7,5.7C184.9,144.8,187.4,147.4,190.5,147.4
			 M198.1,49H183c-2.1,0-3.8,1.7-3.8,3.8c0,2.1,1.7,3.8,3.8,3.8h15.1c2.1,0,3.8-1.7,3.8-3.8C201.9,50.7,200.2,49,198.1,49"/>
		<path class="st2" d="M196.3,63.9c-9.3,0-16.9,7.4-16.9,16.5c0,14.5,15.6,23.5,16.3,23.9c0.2,0.1,0.4,0.2,0.7,0.2
			c0.2,0,0.5-0.1,0.7-0.2c0.7-0.4,16.3-9.4,16.3-23.9C213.2,71.3,205.7,63.9,196.3,63.9 M196.3,100c-2.5-1.6-12.4-8.8-12.4-19.1
			c0-6.9,5.6-12.5,12.4-12.5c6.8,0,12.4,5.6,12.4,12.5C208.7,91.1,198.8,98.3,196.3,100 M196.3,75.2c-3.1,0-5.7,2.5-5.7,5.6
			c0,3.1,2.5,5.6,5.7,5.6c3.1,0,5.7-2.5,5.7-5.6C202,77.7,199.5,75.2,196.3,75.2"/>
		<g>
			<path class="st3" d="M279.7,161.7c-1.3,0-2.6,0.4-3.6,1c-0.5-3.2-3.5-5.8-6.9-5.8c-1.6,0-3.2,0.6-4.4,1.5
				c-1.2-2.1-3.5-3.6-6.2-3.6c-1.3,0-2.5,0.3-3.5,0.9v-15.2c0-3.7-3.1-6.8-7-6.8c-3.8,0-7,3.1-7,6.8v37.9l-5-5.1
				c-2.6-2.6-7-2.6-9.8,0.2c-2.5,2.5-2.6,6.4-0.3,9.6c1.5,2.2,3.4,6.2,5.4,10.5c5.2,11.3,11.1,24.2,19.4,24.2h19.8
				c0.2,0,0.4,0,0.7-0.1c0.6-0.2,15.3-6.3,15.3-21v-28.1C286.7,164.9,283.5,161.7,279.7,161.7z M283.2,196.7
				c0,11.4-10.9,16.7-12.8,17.6h-19.5c-6.1,0-12-12.8-16.2-22.1c-2.1-4.6-4-8.6-5.7-11.1c-1-1.5-1.5-3.7-0.1-5.1
				c1.3-1.3,3.5-1.4,4.8-0.2l8,8.2c0.5,0.5,1.3,0.7,1.9,0.4c0.7-0.3,1.1-0.9,1.1-1.6v-42.2c0-1.8,1.6-3.3,3.5-3.3
				c1.9,0,3.5,1.5,3.5,3.3v20.8c0,0.1,0,0.1,0,0.2v7.3c0,1,0.8,1.8,1.8,1.8c1,0,1.8-0.8,1.8-1.8v-6.9c0,0,0-0.1,0-0.1v-0.3
				c0.1-1.7,1.6-3.2,3.5-3.2c1.9,0,3.5,1.5,3.5,3.3v2.1v5.1v3.5c0,1,0.8,1.8,1.8,1.8c1,0,1.8-0.8,1.8-1.8v-3.5v-5.1
				c0-1.8,1.6-3.3,3.5-3.3c1.9,0,3.5,1.5,3.5,3.3v8.5c0,0,0,0.1,0,0.1v3.4c0,1,0.8,1.8,1.8,1.8c1,0,1.8-0.8,1.8-1.8v-7.3
				c0-1.8,1.6-3.3,3.5-3.3c1.9,0,3.5,1.5,3.5,3.3V196.7z"/>
			<path class="st0" d="M283.2,196.7c0,11.4-10.9,16.7-12.8,17.6h-19.5c-6.1,0-12-12.8-16.2-22.1c-2.1-4.6-4-8.6-5.7-11.1
				c-1-1.5-1.5-3.7-0.1-5.1c1.3-1.3,3.5-1.4,4.8-0.2l8,8.2c0.5,0.5,1.3,0.7,1.9,0.4c0.7-0.3,1.1-0.9,1.1-1.6v-42.2
				c0-1.8,1.6-3.3,3.5-3.3c1.9,0,3.5,1.5,3.5,3.3v20.8c0,0.1,0,0.1,0,0.2v7.3c0,1,0.8,1.8,1.8,1.8c1,0,1.8-0.8,1.8-1.8v-6.9
				c0,0,0-0.1,0-0.1v-0.3c0.1-1.7,1.6-3.2,3.5-3.2c1.9,0,3.5,1.5,3.5,3.3v2.1v5.1v3.5c0,1,0.8,1.8,1.8,1.8c1,0,1.8-0.8,1.8-1.8v-3.5
				v-5.1c0-1.8,1.6-3.3,3.5-3.3c1.9,0,3.5,1.5,3.5,3.3v8.5c0,0,0,0.1,0,0.1v3.4c0,1,0.8,1.8,1.8,1.8c1,0,1.8-0.8,1.8-1.8v-7.3
				c0-1.8,1.6-3.3,3.5-3.3c1.9,0,3.5,1.5,3.5,3.3V196.7z"/>
		</g>
	</g>
</g>
<g id="Layer_2" class="st4">
	<g class="st5">
		<g>
			<g>
				<defs>
					<circle id="SVGID_1_" cx="190.1" cy="96.7" r="93.7"/>
				</defs>
				<use xlink:href="#SVGID_1_"  style="overflow:visible;fill:#434345;"/>
				<clipPath id="SVGID_2_">
					<use xlink:href="#SVGID_1_"  style="overflow:visible;"/>
				</clipPath>
			</g>
		</g>
		<g>
			<path class="st3" d="M260.4,114.6c0-1.3,0.3-2.5,0.9-3.6h-1.6c-3.7,0-6.9-3.2-6.9-7.1c0-1.5,0.5-2.9,1.3-4.1
				c-2.5-1.1-4.3-3.6-4.3-6.5c0-3.9,3.1-7.1,6.8-7.1h0.6c-0.6-1-0.9-2.2-0.9-3.5c0-3.8,3.2-7.1,6.9-7.1h30.3l-5.2-5
				c-2.7-2.7-2.6-7.1,0.2-9.8c2.5-2.5,6.5-2.6,9.7-0.3c2.2,1.6,6.3,3.4,10.6,5.4c11.4,5.2,24.4,11.2,24.4,19.6v20
				c0,0.2,0,0.4-0.1,0.7c-0.2,0.6-6.4,15.5-21.2,15.5h-44.7C263.6,121.7,260.4,118.4,260.4,114.6z M312,118.1
				c11.5,0,16.9-11,17.8-13V85.5c0-6.1-12.9-12.1-22.4-16.4c-4.7-2.1-8.7-4-11.2-5.8c-1.5-1-3.7-1.5-5.2-0.1
				c-1.4,1.4-1.4,3.6-0.2,4.8l8.3,8c0.5,0.5,0.7,1.3,0.4,1.9c-0.3,0.7-0.9,1.1-1.6,1.1h-34.7c-1.8,0-3.4,1.6-3.4,3.5
				c0,1.9,1.5,3.5,3.2,3.5h0.9c0,0,0.1,0,0.1,0h25.9c1,0,1.8,0.8,1.8,1.8s-0.8,1.8-1.8,1.8h-26.8c-0.1,0-0.1,0-0.2,0h-6.3
				c-1.8,0-3.3,1.6-3.3,3.5c0,1.9,1.5,3.5,3.4,3.5h3h4.3h25.6c1,0,1.8,0.8,1.8,1.8c0,1-0.8,1.8-1.8,1.8H264h-4.3
				c-1.8,0-3.3,1.6-3.3,3.5c0,1.9,1.5,3.5,3.4,3.5h8.6c0,0,0.1,0,0.1,0h22c1,0,1.8,0.8,1.8,1.8c0,1-0.8,1.8-1.8,1.8h-23.1
				c-1.8,0-3.3,1.6-3.3,3.5c0,1.9,1.5,3.5,3.4,3.5H312z"/>
			<path class="st0" d="M312,118.1c11.5,0,16.9-11,17.8-13V85.5c0-6.1-12.9-12.1-22.4-16.4c-4.7-2.1-8.7-4-11.2-5.8
				c-1.5-1-3.7-1.5-5.2-0.1c-1.4,1.4-1.4,3.6-0.2,4.8l8.3,8c0.5,0.5,0.7,1.3,0.4,1.9c-0.3,0.7-0.9,1.1-1.6,1.1h-34.7
				c-1.8,0-3.4,1.6-3.4,3.5c0,1.9,1.5,3.5,3.2,3.5h0.9c0,0,0.1,0,0.1,0h25.9c1,0,1.8,0.8,1.8,1.8s-0.8,1.8-1.8,1.8h-26.8
				c-0.1,0-0.1,0-0.2,0h-6.3c-1.8,0-3.3,1.6-3.3,3.5c0,1.9,1.5,3.5,3.4,3.5h3h4.3h25.6c1,0,1.8,0.8,1.8,1.8c0,1-0.8,1.8-1.8,1.8H264
				h-4.3c-1.8,0-3.3,1.6-3.3,3.5c0,1.9,1.5,3.5,3.4,3.5h8.6c0,0,0.1,0,0.1,0h22c1,0,1.8,0.8,1.8,1.8c0,1-0.8,1.8-1.8,1.8h-23.1
				c-1.8,0-3.3,1.6-3.3,3.5c0,1.9,1.5,3.5,3.4,3.5H312z"/>
		</g>
		<g>
			<path class="st2" d="M214,103.8l3.1-3.2h-13.9c-1.1,0-2-0.9-2-2c0-1.1,0.9-2,2-2h13.9l-3.1-3.2c-0.8-0.8-0.8-2,0-2.8
				c0.8-0.8,2-0.8,2.8,0l5.5,5.7c0.6,0.6,1,1.5,1,2.4c0,0.9-0.3,1.7-1,2.4l-5.5,5.7c-0.8,0.8-2,0.8-2.8,0
				C213.3,105.9,213.3,104.6,214,103.8"/>
			<g>
				<circle class="st1" cx="171.4" cy="119.6" r="5.7"/>
				<circle class="st1" cx="156" cy="119.6" r="5.7"/>
				<circle class="st1" cx="156.3" cy="137.3" r="5.7"/>
				<circle class="st1" cx="171.4" cy="137.3" r="5.7"/>
				<circle class="st1" cx="125.1" cy="119.6" r="5.7"/>
				<circle class="st1" cx="125.1" cy="137.3" r="5.7"/>
				<circle class="st1" cx="140.5" cy="137.3" r="5.7"/>
				<circle class="st1" cx="140.5" cy="119.6" r="5.7"/>
				<path class="st1" d="M226.2,72.7h-36.4V48.5c0-6.1-5.6-11-11.4-11h-60.7c-5.8,0-10.5,4.9-10.5,11v100.3c0,6.1,4.7,11,10.5,11
					h61.6c5.8,0,10.5-4.9,10.5-11V80.7h36.4c3.7,0,6.6,3,6.6,6.6v20.7c0,3.7-3,6.6-6.6,6.6h-22.1l-7.1,8h29.2
					c8.1,0,14.6-6.6,14.6-14.6V87.3C240.8,79.3,234.3,72.7,226.2,72.7z M182.2,148.8c0,1.8-1.3,3.3-2.9,3.3h-61.6
					c-1.6,0-2.9-1.5-2.9-3.3v-47.6h67.3V148.8z M182.2,93.2h-67.3V48.5c0-1.8,1.3-3.3,2.9-3.3h61.6c1.6,0,2.9,1.5,2.9,3.3V93.2z"/>
			</g>
		</g>
	</g>
</g>
<g id="Layer_3" class="st4">
	<g class="st5">
		<g>
			<g>
				<path class="st0" d="M283.6,96.8c0,51.8-42,93.8-93.8,93.8c-47,0-85.9-34.5-92.7-79.6c-0.3-2-0.6-4-0.7-6.1
					c-0.2-2.7-0.4-5.4-0.4-8.2C96,45,138,3,189.8,3C241.6,3,283.6,45,283.6,96.8z"/>
			</g>
		</g>
		<path class="st6" d="M124.6,73.6c0,0.4,0,0.9,0.1,1.3h63c-2.1-4-6.4-6.8-11.3-6.8c-1.8,0-3.5,0.4-5.1,1c-1.7-1.9-4-3.3-6.5-3.9
			c-1.2-5.6-6.3-9.8-12.4-9.8c-4.8,0-9,2.6-11.1,6.4c-1.2-0.4-2.5-0.6-3.9-0.6C130.3,61.2,124.6,66.8,124.6,73.6"/>
		<g>
			<g>
				<path class="st6" d="M123.7,99.6c-1.1,0-2.2,0.2-3.3,0.5c-1.8-3.2-5.3-5.4-9.4-5.4c-5.1,0-9.4,3.5-10.5,8.3
					c-1.6,0.4-3,1.1-4.3,2.1c0.2,2,0.4,4.1,0.7,6.1h37.3c0-0.4,0.1-0.7,0.1-1.1C134.4,104.2,129.6,99.6,123.7,99.6z"/>
			</g>
		</g>
		<g>
			<path class="st3" d="M312.6,152.4c0,15.8-12.9,28.7-28.7,28.7c-15.8,0-28.7-12.9-28.7-28.7c0-9.5,4.7-18,11.8-23.2
				c-0.8-2-1.6-4.2-2.5-6.6c-4.9,5.9-17.2,20.7-21.1,25.2c-3,3.5-6.1,5.1-9.1,5.8l2.4,6.6h3.4c1.1,0,1.9,0.8,1.9,1.9
				c0,1-0.8,1.9-1.9,1.9h-10c-1,0-1.9-0.8-1.9-1.9c0-1,0.9-1.9,1.9-1.9h2.6l-2.2-6c-1.4,0.1-2.8,0.1-4.2,0.1h-3
				c-1,15-13.5,26.8-28.7,26.8c-15.8,0-28.7-12.9-28.7-28.7c0-12.7,8.3-23.5,19.8-27.3c-1.6-0.8-3.1-1.4-4-1.5
				c-0.6-0.1-0.1-1.1-0.1-1.1l2.8-3l1.2-0.6h22l3.7,4.5h4.9l2.5-3l-3-8.7l-4.8,0.9c-2.4,0-7.7,0-7.7-4.4c0-2.4,2-4.4,4.4-4.4h17.6
				c2.4,0,4.4,0.9,4.4,3.3c0,2.4-2,2.8-4.4,2.8l-5.8,1.1l7.3,20.7c18.3-0.9,29.8-15.4,31.4-26.2c-1.1-2.8-2.1-5.5-3-7.9
				c-0.1-0.3-0.3-0.5-0.4-0.8c-0.2-0.2-0.3-0.3-0.4-0.5c-2.6-2.7-9.5-3.1-12.1-3c-1.1,0-1.9-0.8-2-1.8c-0.1-1,0.7-1.9,1.8-2
				c1.3-0.1,11.7-0.4,15.6,4.9c0.4,0.4,1.2,1,2.7,1.4c2.1,0.6,12.8,1.4,21.4,2c2.1,0.1,3.7,1.6,3.7,3.5v15.3c0,2-1.5,3.4-3.5,3.4
				h-13.5c-0.3,0-0.6,0-0.8,0c1,2.5,1.9,5,2.7,7.2c4.1-2.2,8.7-3.5,13.6-3.5C299.7,123.7,312.6,136.5,312.6,152.4 M281.5,116.2v-5.6
				l-18-1.2c0.7,1.9,1.4,3.8,2.2,5.7c0.7,0.9,1.5,1.2,2.7,1.2L281.5,116.2z M259.7,99.6c0.7,1.9,1.5,3.8,2.2,5.9l19.5,1.3v-5.2
				c0,0-0.1,0-0.1,0C276,101.2,263.5,100.3,259.7,99.6 M211.9,134.4l-13.2,16.1h20.9C219.1,144.2,216.2,138.5,211.9,134.4
				 M196.6,147.1l11.8-14.3h-8.2c-1.9,0-3,0.8-3.6,1.8V147.1z M219.5,154.3h-24.9c-0.1,0-0.1,0-0.2,0c0,0,0,0,0,0c0,0-0.1,0-0.1,0
				c0,0,0,0,0,0c0,0-0.1,0-0.1,0c0,0,0,0,0,0c-0.2-0.1-0.4-0.2-0.6-0.3c-0.1-0.1-0.3-0.2-0.4-0.4c0,0,0,0,0,0c0,0,0-0.1-0.1-0.1
				c0,0,0,0,0-0.1c0,0,0-0.1,0-0.1c0,0,0-0.1,0-0.1c0,0,0,0,0-0.1c0,0,0-0.1,0-0.1c0,0,0,0,0,0c0,0,0-0.1,0-0.1c0,0,0,0,0,0
				c0-0.1,0-0.2,0-0.3v-19.4c0-0.1-0.1-0.3-0.1-0.4c0-1.6-1.2-3.2-2.8-4.6c-11.5,2.2-20.2,12.4-20.2,24.5
				c0,13.7,11.2,24.9,24.9,24.9C207.8,177.3,218.6,167.2,219.5,154.3 M226.3,150.5c1,0,1.9,0,2.8,0l-9.1-25.9l-5.7,6.9
				c5.1,4.8,8.5,11.5,9,19H226.3z M249.9,134.2l-3.9-5.4c-4.5,3-10.5,5.7-18.2,6.2L233,150c2.7-0.6,5.1-1.9,7.5-4.7
				C242.3,143.2,246,138.8,249.9,134.2 M262.9,118.5c-0.9-2.5-1.9-5-2.9-7.5c-1.7,4.7-4.9,9.6-8.8,13.4c-0.8,0.8-1.6,1.5-2.6,2.3
				l3.5,4.7C256.8,126,261.2,120.6,262.9,118.5 M308.8,152.4c0-13.7-11.2-24.9-24.9-24.9c-4.5,0-8.6,1.2-12.3,3.2
				c1.1,2.8,1.9,5,2.4,6.1c2.5,6.3,11.1,14.6,11.2,14.6c0.8,0.7,0.8,1.9,0.1,2.7c-0.4,0.4-0.9,0.6-1.4,0.6c-0.5,0-0.9-0.2-1.3-0.5
				c-0.4-0.4-9.3-8.9-12.1-16c-0.4-1-1.1-2.9-2.1-5.4c-5.8,4.6-9.5,11.6-9.5,19.5c0,13.7,11.2,24.9,24.9,24.9
				C297.7,177.3,308.8,166.1,308.8,152.4"/>
			<path class="st7" d="M190.2,119.5c0,5.6-4.5,10.1-10.1,10.1c-5.6,0-10.1-4.5-10.1-10.1c0-5.6,4.5-10.1,10.1-10.1
				C185.7,109.4,190.2,113.9,190.2,119.5"/>
			<circle class="st8" cx="180.1" cy="119.5" r="10.1"/>
			<path class="st9" d="M185.1,119.5c0,2.8-2.3,5-5,5c-2.8,0-5-2.3-5-5c0-2.8,2.3-5,5-5C182.9,114.4,185.1,116.7,185.1,119.5"/>
			<path class="st1" d="M166.2,90.3c-8.5,3.7-13.4,10.4-15.3,19.4c-1.6-0.3-3.1-0.5-4.8-0.8c2.2-10.5,7.8-18.3,17.5-22.8
				c10.2-4.7,20.2-3.7,30,2c-1,1.5-1.8,2.8-2.7,4.1C183,87.5,174.7,86.6,166.2,90.3"/>
			<g>
				<path class="st1" d="M155.3,109.2c1.3-7.3,5.9-13.1,12.6-16c6.7-2.9,14.2-2.2,20.2,1.7l0.7,0.5l-2.6,4.1l-0.7-0.5
					c-4.7-3-10.4-3.5-15.6-1.2c-5.1,2.2-8.8,6.8-9.8,12.2l-0.2,0.9l-4.8-0.8L155.3,109.2z"/>
				<path class="st1" d="M169.7,101.4c4.3-2.4,9-2.3,12.9,0.3l1.1,0.7l-2.3,3.5l-1.1-0.6c-2.6-1.5-5-1.7-7.5-0.6
					c-2.5,1.1-4,3-4.7,5.9l-0.3,1.2l-1.2-0.1c-0.1,0-0.2,0-0.3,0c-0.2,0-0.3,0-0.5-0.1c-0.2,0-0.4-0.1-0.7-0.1l-1.6-0.3l0.3-1.3
					C164.6,105.9,166.6,103.1,169.7,101.4z"/>
			</g>
			<path class="st3" d="M201.8,97.1c0.4-1.4,0.5-3.7,0.8-5.3c0.3-1.6,0.4-1.9,1.3-3.8c0.9-2,0.1-1.5,0.9-3.5
				c0.7-2,4.1-12.4,5.1-14.2c1-1.8,1.7-3.5,1.7-3.5s4.1-8.7,7.9-9.9c1.8-0.6,0.8-2.8,0.8-2.8s-0.7-1-0.7-1.5c0,0,0,0,0-0.1l-1,0.2
				c0,0-1.2-1.2-2.4-3c-1.4-2.2,0-6.2,1.2-7.7c0.9-1.2,2.4-2.5,4.3-3.2c12.1-4.2,13.3,6,13.3,6l-1.3,0.8c0.1,0.4,0.3,1.1,0.4,1.5
				c0.2,0.6,0.4,1.6,0.3,2c-0.1,0.4-0.1,0.4-0.1,0.4s0.5,1.5,0.8,1.8c0.3,0.4,0.5,0.9,0.1,1.2c-0.3,0.3-0.6,0.3-0.6,0.3l-0.2,0.3
				c0,0-0.1,0.4,0,0.8c0.1,0.4,0.1,0.7-0.1,0.8c-0.2,0.1-0.4,0.3-0.4,0.3s0.3,0.3,0.1,0.6c-0.2,0.3-0.4,0.4-0.4,0.4
				s-0.1,0.4-0.1,1.2c0,0.9,0.3,1-1.5,1.6c-1.8,0.5-2.6,0.3-2.6,0.3l-1.1,2.1c0,0,0.5,0.7,1.1,2c0.6,1.3,1,2,0.5,5.1
				c-0.5,3.6-1.1,4.6-1.4,6.4c-0.5,2.1,1.1,4.1,4.5,6.8c6.1,4.9,12.4,6.3,12.5,6.7c0.1,0.3,0.2,0.7,0.2,0.7s0.3-0.1,0.6,0.3
				c0.1,0.1,0.1,0.1,0.2,0.1c0.1,0,0-0.2,0.8-0.4c1-0.2,3.1-0.1,3.9,0.6c0.4,0.3,1.2,2.2,0.9,3.3c-0.5,2.2-3.8,2-4.6,1.9
				c-1.8-0.1-3.2-0.7-3.9-1.1c-0.7-0.3-1.6-0.5-1.6-0.5s-5.5-1-6.9-1.4c-1.4-0.4-8.1-5.4-9.2-6.1c-0.7-0.5-1.4,1.8-1.9,6.2
				c-0.3,2.2-3.8,5.4-0.6,8c7.7,6.2,11,11.3,11,11.3c1.8,1.8,5.1,5.5,5.4,6.6c0.6,1.9-1,9.6-1.2,11.4c-0.2,1.3-1.5,18.8-1.7,19.7
				c-0.4,2.2-1,4-0.9,3.6c-0.9-0.2,0.1,1.6,2.5,2.1c0.7,0.4,1.4,0.9,1.4,0.9s2.3,0.8,3.2,0.7c0.8-0.1,1.9-0.3,2.5,0.6
				c0.5,0.9-0.2,2.4-0.9,2.7c-0.7,0.3-3.6,1-3.6,1s-0.8,1.4-1.4,1.8c-0.6,0.4-5,0.6-5,0.6l-0.7-1.9c0,0-9.3-0.3-9.6-1
				c-0.3-0.7-0.4-1.7-0.2-1.8c0.2-0.2,0.2-0.2,0.2-0.2s0.1-4.5,0.1-4.9c0-0.4,0.6-1.3,0.6-1.3l1-8.4l0.3-2.6c0,0,0,0-0.1-0.1
				l0.9-8.7c0.2-0.9,0.4-2,0.4-2.3c0.1-0.4,0.6-6.4,0.4-6.7l-4.5-3.3c0,0-4.3-2.4-6.6-4.1c-2.3-1.7-4.2-2.9-6.4-3.8
				c-2.2-1-4.8-2.1-6.4-5c-1.5-2.9-1.8-5.1-1.6-5.2C202.5,101.6,201.4,98.5,201.8,97.1z"/>
			<path class="st3" d="M221.7,118l12.8,1.7c0,2-2.5,7.6-3.3,9.3c-0.6,1.1-7.2,17.5-7.6,18.2c-1.1,1.9-2.2,3.5-2,3.2
				c-0.8-0.5-0.4,1.5,1.7,2.8c0.5,0.6,1.1,1.3,1.1,1.3s2,1.5,2.8,1.6c0.8,0.2,1.9,0.3,2.2,1.3c0.2,1-0.9,2.2-1.7,2.3
				c-0.8,0.1-3.8-0.2-3.8-0.2s-1.2,1.1-1.9,1.3c-0.6,0.2-5-1-5-1l-0.1-2c0,0-8.8-3.1-8.8-3.9c-0.1-0.7,0.1-1.7,0.4-1.8
				c0.2-0.1,0.2-0.1,0.2-0.1s1.5-4.2,1.6-4.6c0.1-0.4,0.9-1.1,0.9-1.1l3.5-7.7l1.1-2.3c0,0,0,0,0-0.1l3.5-8c0.4-0.8-1-1.8-0.9-2
				c0.2-0.4,3.2-4.8,3.1-5.2L221.7,118z"/>
		</g>
	</g>
</g>
<g id="Layer_4" class="st4">
	<g class="st5">
		<g>
			<g>
				<g>
					<path class="st10" d="M96.3,96.7c0,51.9,42.1,94,94,94c51.9,0,94-42.1,94-94c0-51.9-42.1-94-94-94
						C138.3,2.7,96.3,44.8,96.3,96.7"/>
					<circle class="st0" cx="190.2" cy="96.7" r="94"/>
				</g>
			</g>
			<g>
				<path class="st3" d="M249.6,125.3l3.8,10.3h5.3c1.6,0,3,1.3,3,3c0,1.6-1.3,3-3,3h-15.7c-1.6,0-3-1.3-3-3c0-1.6,1.3-3,3-3h4
					l-3.5-9.4c-2.2,0.2-4.4,0.2-6.5,0.2h-4.7c-1.5,23.4-21.1,42-44.9,42c-24.8,0-45-20.2-45-45c0-19.9,13-36.9,31-42.8
					c-2.5-1.3-4.8-2.2-6.2-2.4c-1-0.2-0.2-1.7-0.2-1.7l4.4-4.7l1.9-0.9h34.4l5.7,7h7.7l3.8-4.7l-4.8-13.6l-7.5,1.4
					c-3.8,0-12,0-12-6.9c0-3.8,3.1-6.9,6.9-6.9h27.6c3.8,0,6.9,1.4,6.9,5.2c0,3.8-3.1,4.3-6.9,4.3l-9.1,1.7L237.5,91
					c19.4-0.9,33.9-11.6,42-23.7c0.7,2.1,1.3,4.3,1.9,6.5c-1.6,2.1-3.3,4-5.2,5.9c-1.2,1.2-2.5,2.4-4,3.6l5.4,7.4
					c1.9-2.3,3.9-4.6,5.7-6.9c0.4,2.7,0.6,5.5,0.8,8.4c-7.9,9.5-16.5,19.7-20.2,24C259.1,121.6,254.4,124.2,249.6,125.3z
					 M187.6,126.4c-0.1,0-0.2,0-0.3,0c0,0,0,0-0.1,0c-0.1,0-0.1,0-0.2,0c0,0,0,0-0.1,0c-0.1,0-0.1,0-0.2-0.1c0,0,0,0,0,0
					c-0.4-0.1-0.7-0.3-1-0.5c-0.2-0.2-0.4-0.4-0.5-0.6c0,0,0,0,0,0c0-0.1-0.1-0.1-0.1-0.2c0,0,0-0.1,0-0.1c0,0,0-0.1-0.1-0.1
					c0,0,0-0.1-0.1-0.1c0,0,0-0.1,0-0.1c0-0.1,0-0.1-0.1-0.2c0,0,0,0,0-0.1c0-0.1,0-0.1-0.1-0.2c0,0,0,0,0,0c0-0.2-0.1-0.3-0.1-0.5
					V93c-0.1-0.2-0.1-0.4-0.1-0.6c0-2.5-1.8-5.1-4.3-7.3c-18,3.5-31.6,19.3-31.6,38.3c0,21.5,17.5,39.1,39.1,39.1
					c20.5,0,37.4-15.9,38.9-36.1H187.6L187.6,126.4z M196.1,92.7c-2.9,0-4.7,1.3-5.6,2.8v19.6L209,92.7H196.1z M193.9,120.5h32.7
					c-0.7-9.9-5.2-18.7-11.9-25.2L193.9,120.5z M227.3,79.9l-8.9,10.8c8,7.6,13.3,18.1,14.1,29.8h4.7c1.6,0,3,0,4.4-0.1L227.3,79.9z
					 M267.8,86.5c-7,4.8-16.5,8.9-28.5,9.8l8.2,23.4c4.3-0.9,8-3,11.8-7.4c2.8-3.3,8.6-10.1,14.7-17.4L267.8,86.5z"/>
			</g>
		</g>
		<path class="st11" d="M156.2,162.9l-18.9,6.3l-1.2,2.1l76,0.1l-1.8-2.3l-18.4-6c0,0-0.6-70.8-0.7-77.8c0-4.6,0.1-9.1-2.3-13.3
			c-3.5-6-10.5-9.5-17.4-8.4c-6.7,1-12.6,6.1-13.9,12.9c-0.7,3.8-0.3,8.1-0.3,12C157.2,94.6,156.2,162.9,156.2,162.9z M174.4,87.8
			c-4.2,0-7.7-3.5-7.7-7.7c0-4.2,3.4-7.7,7.6-7.7c4.2,0,7.7,3.5,7.7,7.7C182.1,84.3,178.6,87.8,174.4,87.8z"/>
		<path class="st2" d="M195,93.7l-2.8-2.7v12c0,0.9-0.8,1.7-1.7,1.7c-1,0-1.7-0.8-1.7-1.7V91l-2.8,2.7c-0.7,0.7-1.8,0.7-2.5,0
			c-0.7-0.7-0.7-1.7,0-2.4l4.9-4.8c0.6-0.6,1.3-0.8,2-0.8c0.7,0,1.5,0.3,2,0.8l4.9,4.8c0.7,0.7,0.7,1.7,0,2.4
			C196.8,94.4,195.7,94.4,195,93.7"/>
		<path class="st0" d="M174.4,87.8c-4.2,0-7.7-3.5-7.7-7.7c0-4.2,3.4-7.7,7.6-7.7c4.2,0,7.7,3.5,7.7,7.7
			C182.1,84.3,178.6,87.8,174.4,87.8z"/>
		<path class="st1" d="M177.2,80.8v19.8c0,4.4,2.8,8,6.2,8H198c3.4,0,6.2-3.6,6.2-8V86l4.5-5.9v20.5c0,6.9-4.8,12.4-10.8,12.4h-14.5
			c-5.9,0-10.8-5.6-10.8-12.4V78.8L177.2,80.8z"/>
	</g>
</g>
</svg>
