<?xml version="1.0" encoding="UTF-8" standalone="no"?><svg xmlns="http://www.w3.org/2000/svg" viewBox="0 0 537.91 74.69"><title>Untitled-1</title><path d="M458.22,57.46c-6.66,1.79-12,1.53-15.08-.71-7.84-5.72-1.89-17.25.27-20.68a103,103,0,0,0-10.64,13c-4.68,7.2-6.68,15.07-3.52,20.13,5.69,9.12,19.32,4.91,28,1.25l80.66-34Z" fill="#010101"/><path d="M0,74.27V0H24.88q14,0,20.68,5.77a19.31,19.31,0,0,1,6.83,15.29q0,14-14.78,15.11Q46,37.33,49.95,41.37T53.87,53q0,9.58-6.62,15.39T30,74.27H0Zm21.4-46h1.44a9.84,9.84,0,0,0,6.08-1.68,5.57,5.57,0,0,0,2.23-4.71q0-6.44-7.54-6.45l-0.9,0-1.31.07V28.28Zm0,30.25,1.08,0.08,0.77,0a9.55,9.55,0,0,0,6.39-2A6.76,6.76,0,0,0,32,51.18a6.47,6.47,0,0,0-2.38-5.33,10.12,10.12,0,0,0-6.55-1.93H21.4V58.53Z" fill="#010101"/><rect x="56.7" width="21.4" height="74.27" fill="#010101"/><polygon points="141 74.27 117.92 74.27 103.7 40.02 104.27 74.27 82.87 74.27 82.87 0 104.27 0 103.7 31.84 116.33 0 138.9 0 121.81 35.84 141 74.27" fill="#010101"/><path d="M278.73,37.39q0,16.4-8.26,26.66a26.16,26.16,0,0,1-21.39,10.22A28.29,28.29,0,0,1,229,66.42Q218.5,56.48,218.5,36.6q0-19,11-29.12A27.67,27.67,0,0,1,248.82,0q13.7,0,21.81,10.12t8.11,27.26m-22.22.17q0-19.76-7.59-19.76-3.79,0-6.05,5.19-2.21,4.81-2.21,14.15t2.08,14.27q2.08,5.07,5.77,5.07t5.85-5q2.15-5,2.15-13.91" fill="#010101"/><path d="M346.26,74.27H325.56l-5-26q-1.45-7.55-2.18-13.08-0.36-2.74-.62-4.57c-0.18-1.22-.29-2.15-0.36-2.79q-0.26,2-.77,7.36-0.24,2.74-.56,5.77t-0.8,6.4l-3.71,26.93h-20L273.92,0h21.14l3.49,20.44q2,12.22,2.77,19.19L302,46.42l0.67-5.82q1-10.2,2.68-19.39L309.24,0H327l3.47,17.85Q333,30.3,334.82,47.33q0.57-7.65,1.23-13.56T337.54,23l3.9-23h20.88Z" fill="#010101"/><path d="M362.69,74.27V0H383.1l10.73,26.07q0.87,2.31,2,5.29t2.44,6.88l2.21,6.54q-1.18-9.67-1.79-16.55T398,16.69V0h20.62V74.27H398L386.61,46.95q-1.8-4.38-3.24-8.2t-2.53-7.29q1.28,7.84,1.87,13.66a101.82,101.82,0,0,1,.59,10.2v19H362.69Z" fill="#010101"/><polygon points="140.86 0 140.86 74.27 180.62 74.27 180.62 56.47 162.25 56.47 162.25 45.07 178.72 45.07 178.72 27.27 162.25 27.27 162.25 17.8 189.71 17.8 189.71 74.27 211.1 74.27 211.1 17.8 223.37 17.8 223.37 0 140.86 0" fill="#010101"/></svg>
