<svg id="Layer_1" data-name="Layer 1" xmlns="http://www.w3.org/2000/svg" width="169.67" height="115.02" viewBox="0 0 169.67 115.02"><defs><style>.cls-1{fill:#f28f24;}.cls-2{fill:#f28f23;}.cls-3{fill:#011b2a;}</style></defs><title>cp-logo</title><path class="cls-1" d="M8.75,94.9a2.9,2.9,0,0,0-3-3.17c-2.84,0-3.1,2.45-3.1,3.82v13.57c0,0.9.4,3.28,2.92,3.28,1.4,0,3.13-.61,3.13-3.53v-0.79h2.74V109c0,3.6-1.66,6-6,6-5,0-5.51-4.1-5.51-5.54V94.58a5.34,5.34,0,0,1,5.65-5.47c3.13,0,5.72,1.51,5.72,5.51v1.62H8.75V94.9Z"/><path class="cls-1" d="M15.35,101.56a4.9,4.9,0,0,1,5.15-5,4.89,4.89,0,0,1,5.15,5v8.31a4.9,4.9,0,0,1-5.15,5.11,4.9,4.9,0,0,1-5.15-5.11v-8.28Zm7.59,0.5c0-2-1.12-2.92-2.45-2.92s-2.45.94-2.45,2.92v7.34c0,1.87.86,2.92,2.45,2.92s2.45-1,2.45-2.92v-7.34Z"/><path class="cls-1" d="M30,96.81h2.7v1.76a4.74,4.74,0,0,1,3.85-2.05c3.17,0,3.74,2.41,3.74,4.14v14H37.6V101.92c0-1.37-.54-2.77-2.27-2.77-2.2,0-2.63,2.16-2.63,3.28v12.24H30V96.81Z"/><path class="cls-1" d="M48.54,91.37v5.43h2.52V99H48.54V109.8a2.57,2.57,0,0,0,.72,2,2.6,2.6,0,0,0,1.69.43h0.29v2.45H50.45c-1,0-2.7,0-3.67-1.12a4.89,4.89,0,0,1-.94-3.42V99H43.93V96.81h1.91V91.37h2.7Z"/><path class="cls-1" d="M62.53,112.9h0a4.63,4.63,0,0,1-4,2.05c-2.84,0-3.67-2.16-3.67-5,0-3.78,1.22-5.9,5.22-5.9a23.92,23.92,0,0,1,2.52.14v-2.63A2.4,2.4,0,0,0,60,99.15a2.36,2.36,0,0,0-2.45,2.2H55c0-3,2.3-4.82,5.22-4.82,4.14,0,5,3.06,5,5.36v12.78h-2.7V112.9Zm0-6.73a14.63,14.63,0,0,0-1.84-.18c-1.55,0-3.2.83-3.2,3.46s0.76,3.2,2.3,3.2c1.12,0,2.74-1.48,2.74-3.35v-3.13Z"/><path class="cls-1" d="M72.41,90V92.6h-2.7V90h2.7Zm-2.7,6.84h2.7v17.85h-2.7V96.81Z"/><path class="cls-1" d="M76.87,96.81h2.7v1.76a4.74,4.74,0,0,1,3.85-2.05c3.17,0,3.74,2.41,3.74,4.14v14h-2.7V101.92c0-1.37-.54-2.77-2.27-2.77-2.2,0-2.63,2.16-2.63,3.28v12.24h-2.7V96.81Z"/><path class="cls-1" d="M99,109.66h2.7v0.25c0,1.76-.83,5-5,5a4.92,4.92,0,0,1-5.22-5.18v-8.28a4.78,4.78,0,0,1,5-5,5,5,0,0,1,5.22,5.11v5.11H94.21v2.84c0,1.91.86,2.74,2.52,2.74s2.27-1,2.27-2.45v-0.22Zm0.07-4.93v-3.06a2.28,2.28,0,0,0-2.41-2.52,2.41,2.41,0,0,0-2.45,2.66v2.92h4.86Z"/><path class="cls-1" d="M108.68,96.81v2.81c1.91-2.59,3.56-3.06,5-3.1v3h-0.5c-2,0-4.46.79-4.46,4.72v10.4H106V96.81h2.7Z"/><path class="cls-1" d="M117.38,89.47h5.47c4.54,0,6.23,3,6.23,6.41V98.1c0,3.24-2.09,6.16-5.69,6.16h-3.31v10.4h-2.7V89.47Zm2.7,12.49h2.56a3.42,3.42,0,0,0,3.74-3.42v-3c0-2.3-1.19-3.74-3.71-3.74h-2.59V102Z"/><path class="cls-1" d="M135.73,90V92.6H133V90h2.7ZM133,96.81h2.7v17.85H133V96.81Z"/><path class="cls-1" d="M142.87,89.47V110.2a1.84,1.84,0,0,0,2,2h0.4v2.48h-0.83c-2.74,0-4.25-1.62-4.25-4V89.47h2.7Z"/><path class="cls-1" d="M148.67,101.56a5.15,5.15,0,0,1,10.29,0v8.31a5.15,5.15,0,0,1-10.29,0v-8.28Zm7.59,0.5c0-2-1.12-2.92-2.45-2.92s-2.45.94-2.45,2.92v7.34c0,1.87.86,2.92,2.45,2.92s2.45-1,2.45-2.92v-7.34Z"/><path class="cls-1" d="M167,91.37v5.43h2.52V99H167V109.8a2.57,2.57,0,0,0,.72,2,2.6,2.6,0,0,0,1.69.43h0.29v2.45h-0.79c-1,0-2.7,0-3.67-1.12a4.88,4.88,0,0,1-.94-3.42V99h-1.91V96.81h1.91V91.37H167Z"/><path class="cls-1" d="M66.43,74.95H64.78V73.61h4.73v1.34H67.86v8.62H66.43V74.95Z"/><path class="cls-1" d="M71.81,73.61h2.3q2.52,0,2.52,2.93A3.7,3.7,0,0,1,76.35,78a2.11,2.11,0,0,1-1,1l1.54,4.55H75.42l-1.33-4.26H73.23v4.26H71.81v-10Zm1.43,4.45H74a1.45,1.45,0,0,0,.6-0.1,0.78,0.78,0,0,0,.34-0.3,1.27,1.27,0,0,0,.16-0.48,5.29,5.29,0,0,0,0-1.33A1.2,1.2,0,0,0,75,75.35a0.79,0.79,0,0,0-.37-0.3,1.68,1.68,0,0,0-.63-0.1H73.23v3.11Z"/><path class="cls-1" d="M79.35,73.61h1.43v10H79.35v-10Z"/><path class="cls-1" d="M84.76,74.95H83.1V73.61h4.73v1.34H86.18v8.62H84.76V74.95Z"/><path class="cls-1" d="M90,76a2.55,2.55,0,0,1,.21-1.06,2.22,2.22,0,0,1,.55-0.76,2.37,2.37,0,0,1,.77-0.46,2.48,2.48,0,0,1,1.72,0,2.37,2.37,0,0,1,.77.46,2.21,2.21,0,0,1,.55.76A2.54,2.54,0,0,1,94.83,76v5.26a2.53,2.53,0,0,1-.21,1.07,2.24,2.24,0,0,1-.55.76,2.39,2.39,0,0,1-.77.46,2.49,2.49,0,0,1-1.72,0A2.39,2.39,0,0,1,90.8,83a2.24,2.24,0,0,1-.55-0.76A2.54,2.54,0,0,1,90,81.22V76Zm1.43,5.26a1,1,0,0,0,.29.76,1.06,1.06,0,0,0,1.36,0,1,1,0,0,0,.29-0.76V76a1,1,0,0,0-.29-0.76,1.06,1.06,0,0,0-1.36,0,1,1,0,0,0-.29.76v5.26Z"/><path class="cls-1" d="M97.42,73.61H98.8l2.16,6h0v-6h1.43v10h-1.34l-2.18-6h0v6H97.42v-10Z"/><path class="cls-2" d="M88,2l30,51.93a4,4,0,0,1-3.43,5.94h-60a4,4,0,0,1-3.43-5.94L81.18,2A4,4,0,0,1,88,2Z"/><path class="cls-3" d="M84.6,13.75a0.28,0.28,0,0,1,.27.2l2.25,7.11v7.53l15.8,11.61v4.27L93,38.63H87.13l-1.5,10,5.7,2.53v2.52L84.56,52l-6.69,1.63V51.14l5.7-2.53-1.5-10H76.17l-9.89,5.85V40.21l15.8-11.61V21.06L84.33,14a0.28,0.28,0,0,1,.27-0.2m0-2v0a2.28,2.28,0,0,0-2.18,1.6l-2.25,7.11-0.09.6v6.52l-15,11-0.82,1.61v4.27l3,1.72,9.42-5.57h3.64l1,6.77-4.31,1.91-1.19,1.83v2.52l2.47,1.94,6.22-1.51,6.29,1.52,2.47-1.94V51.14l-1.19-1.83L87.83,47.4l1-6.77h3.64l9.42,5.57,3-1.72V40.21l-0.82-1.61-15-11V21.06L89,20.46l-2.25-7.11a2.28,2.28,0,0,0-2.18-1.6h0Z"/></svg>