<svg id="Layer_1" data-name="Layer 1" xmlns="http://www.w3.org/2000/svg" width="132.25" height="125.51" viewBox="0 0 132.25 125.51"><defs><style>.cls-1{fill:#fff;}.cls-10,.cls-11,.cls-12,.cls-13,.cls-2,.cls-3,.cls-4,.cls-5,.cls-6,.cls-7,.cls-8,.cls-9{fill:none;stroke-linecap:round;stroke-linejoin:round;stroke-width:1.49px;}.cls-2{stroke:#b3b3b3;}.cls-3{stroke:#fff;}.cls-4{stroke:#599298;}.cls-5{stroke:#82d1e5;}.cls-6{stroke:#3b5967;}.cls-7{stroke:#5b87a8;}.cls-8{stroke:#b06828;}.cls-9{stroke:#f09922;}.cls-10{stroke:#b13f26;}.cls-11{stroke:#f06324;}.cls-12{stroke:#801518;}.cls-13{stroke:#c42c28;}</style></defs><title>dc-logo</title><path class="cls-1" d="M5,100A6.41,6.41,0,0,1,10,101.82a7.14,7.14,0,0,1,1.51,5v11.38a7.14,7.14,0,0,1-1.51,5A6.42,6.42,0,0,1,5,125.15H0V100H5ZM8.78,118V107.08a4.88,4.88,0,0,0-1-3.46,3.65,3.65,0,0,0-2.88-1H2.7v19.94H4.9a3.66,3.66,0,0,0,2.88-1A4.88,4.88,0,0,0,8.78,118Z"/><path class="cls-1" d="M23.52,123.38h0a4.63,4.63,0,0,1-4,2.05c-2.84,0-3.67-2.16-3.67-5,0-3.78,1.22-5.9,5.22-5.9a24.08,24.08,0,0,1,2.52.14V112A2.4,2.4,0,0,0,21,109.63a2.35,2.35,0,0,0-2.45,2.2H16c0-3,2.3-4.82,5.22-4.82,4.14,0,5,3.06,5,5.36v12.78h-2.7v-1.76Zm0-6.73a14.6,14.6,0,0,0-1.84-.18c-1.55,0-3.2.83-3.2,3.46s0.76,3.2,2.3,3.2c1.12,0,2.74-1.48,2.74-3.35v-3.13Z"/><path class="cls-1" d="M34.32,101.86v5.44h2.52v2.16H34.32v10.83a2.57,2.57,0,0,0,.72,2,2.6,2.6,0,0,0,1.69.43H37v2.45H36.23c-1,0-2.7,0-3.67-1.12a4.89,4.89,0,0,1-.94-3.42V109.45H29.71v-2.16h1.91v-5.44h2.7Z"/><path class="cls-1" d="M48.31,123.38h0a4.63,4.63,0,0,1-4,2.05c-2.84,0-3.67-2.16-3.67-5,0-3.78,1.22-5.9,5.22-5.9a24.08,24.08,0,0,1,2.52.14V112a2.4,2.4,0,0,0-2.52-2.41,2.35,2.35,0,0,0-2.45,2.2H40.75c0-3,2.3-4.82,5.22-4.82,4.14,0,5,3.06,5,5.36v12.78h-2.7v-1.76Zm0-6.73a14.6,14.6,0,0,0-1.84-.18c-1.55,0-3.2.83-3.2,3.46s0.76,3.2,2.3,3.2c1.12,0,2.74-1.48,2.74-3.35v-3.13Z"/><path class="cls-1" d="M64.28,105.39a2.9,2.9,0,0,0-3-3.17c-2.84,0-3.1,2.45-3.1,3.82V119.6c0,0.9.4,3.28,2.92,3.28,1.4,0,3.13-.61,3.13-3.53v-0.79H67v0.94c0,3.6-1.66,6-6,6-5,0-5.51-4.1-5.51-5.54v-14.9a5.34,5.34,0,0,1,5.65-5.47c3.13,0,5.72,1.51,5.72,5.51v1.62H64.28v-1.33Z"/><path class="cls-1" d="M78.37,120.14h2.7v0.25c0,1.76-.83,5-5,5a4.92,4.92,0,0,1-5.22-5.18V112a4.78,4.78,0,0,1,5-5,5,5,0,0,1,5.22,5.11v5.11H73.58v2.84c0,1.91.86,2.74,2.52,2.74s2.27-1,2.27-2.45v-0.22Zm0.07-4.93v-3.06A2.28,2.28,0,0,0,76,109.63a2.41,2.41,0,0,0-2.45,2.66v2.92h4.86Z"/><path class="cls-1" d="M85.35,107.29h2.7v1.76A4.75,4.75,0,0,1,91.91,107c3.17,0,3.74,2.41,3.74,4.14v14h-2.7V112.4c0-1.37-.54-2.77-2.27-2.77-2.2,0-2.63,2.16-2.63,3.28v12.24h-2.7V107.29Z"/><path class="cls-1" d="M103.88,101.86v5.44h2.52v2.16h-2.52v10.83a2.57,2.57,0,0,0,.72,2,2.6,2.6,0,0,0,1.69.43h0.29v2.45h-0.79c-1,0-2.7,0-3.67-1.12a4.88,4.88,0,0,1-.94-3.42V109.45H99.28v-2.16h1.91v-5.44h2.7Z"/><path class="cls-1" d="M117.6,120.14h2.7v0.25c0,1.76-.83,5-5,5a4.92,4.92,0,0,1-5.22-5.18V112a4.78,4.78,0,0,1,5-5,5,5,0,0,1,5.22,5.11v5.11h-7.56v2.84c0,1.91.86,2.74,2.52,2.74s2.27-1,2.27-2.45v-0.22Zm0.07-4.93v-3.06a2.28,2.28,0,0,0-2.41-2.52,2.41,2.41,0,0,0-2.45,2.66v2.92h4.86Z"/><path class="cls-1" d="M127.28,107.29v2.81c1.91-2.59,3.56-3.06,5-3.09v3h-0.5c-2,0-4.46.79-4.46,4.71v10.4h-2.7V107.29h2.7Z"/><path class="cls-1" d="M47.38,85.44H45.73V84.09h4.73v1.34H48.81v8.62H47.38V85.44Z"/><path class="cls-1" d="M52.75,84.09H55q2.52,0,2.52,2.93a3.7,3.7,0,0,1-.27,1.49,2.1,2.1,0,0,1-1,1l1.54,4.55H56.37L55,89.8H54.18v4.26H52.75v-10Zm1.43,4.45H55a1.43,1.43,0,0,0,.6-0.11,0.77,0.77,0,0,0,.34-0.3,1.28,1.28,0,0,0,.16-0.48,5.29,5.29,0,0,0,0-1.33,1.2,1.2,0,0,0-.18-0.49,0.79,0.79,0,0,0-.37-0.3,1.68,1.68,0,0,0-.63-0.1H54.18v3.11Z"/><path class="cls-1" d="M60.3,84.09h1.43v10H60.3v-10Z"/><path class="cls-1" d="M65.7,85.44H64.05V84.09h4.73v1.34H67.13v8.62H65.7V85.44Z"/><path class="cls-1" d="M71,86.44a2.56,2.56,0,0,1,.21-1.06,2.22,2.22,0,0,1,.55-0.76,2.37,2.37,0,0,1,.77-0.46,2.48,2.48,0,0,1,1.72,0,2.37,2.37,0,0,1,.77.46,2.22,2.22,0,0,1,.55.76,2.55,2.55,0,0,1,.21,1.06v5.26a2.53,2.53,0,0,1-.21,1.07,2.24,2.24,0,0,1-.55.76,2.39,2.39,0,0,1-.77.46,2.49,2.49,0,0,1-1.72,0,2.39,2.39,0,0,1-.77-0.46,2.24,2.24,0,0,1-.55-0.76A2.54,2.54,0,0,1,71,91.71V86.44Zm1.43,5.26a1,1,0,0,0,.29.76,1.06,1.06,0,0,0,1.36,0,1,1,0,0,0,.29-0.76V86.44a1,1,0,0,0-.29-0.76,1.06,1.06,0,0,0-1.36,0,1,1,0,0,0-.29.76v5.26Z"/><path class="cls-1" d="M78.37,84.09h1.37l2.16,6h0v-6h1.43v10H82l-2.18-6h0v6H78.37v-10Z"/><line class="cls-2" x1="42.41" y1="47.02" x2="19.27" y2="47.02"/><line class="cls-2" x1="42.41" y1="47.02" x2="65.55" y2="70.16"/><line class="cls-3" x1="19.27" y1="47.02" x2="19.27" y2="23.88"/><line class="cls-3" x1="42.41" y1="70.16" x2="42.41" y2="47.02"/><line class="cls-3" x1="65.55" y1="70.16" x2="42.41" y2="70.16"/><line class="cls-3" x1="19.27" y1="47.02" x2="42.41" y2="70.16"/><line class="cls-4" x1="88.69" y1="47.02" x2="111.82" y2="70.16"/><polyline class="cls-5" points="111.82 47.02 111.82 70.16 88.69 70.16"/><line class="cls-6" x1="65.55" y1="47.02" x2="88.69" y2="70.16"/><polyline class="cls-7" points="65.55 70.16 65.55 47.02 88.69 47.02"/><polyline class="cls-7" points="88.69 47.02 88.69 70.16 65.55 70.16"/><line class="cls-7" x1="42.41" y1="47.02" x2="65.55" y2="70.16"/><polyline class="cls-8" points="88.69 0.74 88.69 23.88 65.55 23.88"/><line class="cls-8" x1="88.69" y1="23.88" x2="111.82" y2="47.02"/><line class="cls-9" x1="65.55" y1="0.74" x2="88.69" y2="0.74"/><line class="cls-9" x1="88.69" y1="23.88" x2="111.82" y2="23.88"/><polyline class="cls-9" points="111.82 23.88 111.82 47.02 88.69 47.02"/><line class="cls-9" x1="88.69" y1="0.74" x2="111.82" y2="23.88"/><line class="cls-10" x1="65.55" y1="0.74" x2="65.55" y2="23.88"/><line class="cls-10" x1="65.55" y1="23.88" x2="88.69" y2="47.02"/><line class="cls-11" x1="42.41" y1="0.74" x2="65.55" y2="0.74"/><polyline class="cls-11" points="65.55 47.02 65.55 23.88 88.69 23.88"/><polyline class="cls-11" points="88.69 23.88 88.69 47.02 65.55 47.02"/><line class="cls-11" x1="65.55" y1="0.74" x2="88.69" y2="23.88"/><line class="cls-11" x1="42.41" y1="0.74" x2="65.55" y2="23.88"/><polyline class="cls-12" points="42.41 0.74 42.41 23.88 19.27 23.88"/><line class="cls-12" x1="42.41" y1="23.88" x2="65.55" y2="47.02"/><polyline class="cls-13" points="19.27 23.88 19.27 0.74 42.41 0.74"/><polyline class="cls-13" points="42.41 47.02 42.41 23.88 65.55 23.88"/><polyline class="cls-13" points="65.55 23.88 65.55 47.02 42.41 47.02"/><line class="cls-13" x1="42.41" y1="0.74" x2="65.55" y2="23.88"/><line class="cls-13" x1="19.27" y1="0.74" x2="42.41" y2="23.88"/><line class="cls-13" x1="19.27" y1="23.88" x2="42.41" y2="47.02"/></svg>