<svg id="Layer_1" data-name="Layer 1" xmlns="http://www.w3.org/2000/svg" width="103.22" height="109.98" viewBox="0 0 103.22 109.98"><defs><style>.cls-1{fill:#82d1e5;}.cls-2{fill:none;stroke:#011b2a;stroke-linejoin:bevel;stroke-width:2px;}</style></defs><title>so-logo</title><path class="cls-1" d="M9.25,90.47a4.6,4.6,0,0,0-.76-2.74,2.94,2.94,0,0,0-2.41-1,3,3,0,0,0-2.2.83A4.18,4.18,0,0,0,3,90.58a5.83,5.83,0,0,0,.65,3,4.12,4.12,0,0,0,2,1.37l2.3,0.83a6.45,6.45,0,0,1,3.2,2.12,6.59,6.59,0,0,1,1,4.18V103a8,8,0,0,1-1.66,5.4A6.21,6.21,0,0,1,5.94,110c-2.48,0-4.07-.9-4.86-2A7.81,7.81,0,0,1,0,103.83v-0.9H2.7v0.72a4.6,4.6,0,0,0,.72,2.66,3.14,3.14,0,0,0,2.48,1,3.27,3.27,0,0,0,2.77-1.12,4.64,4.64,0,0,0,.72-2.92v-1a5,5,0,0,0-.72-3A4.29,4.29,0,0,0,6.62,98L3.89,97a4.86,4.86,0,0,1-3.13-2.7,9.12,9.12,0,0,1-.5-3.56V90a6,6,0,0,1,1.8-4.5,5.68,5.68,0,0,1,4.14-1.44c3.46,0,5.76,2.23,5.76,6.26v0.86H9.25V90.47Z"/><path class="cls-1" d="M19,91.77v1.76a4.65,4.65,0,0,1,3.82-2.05,3.64,3.64,0,0,1,3.53,2.05,4.46,4.46,0,0,1,3.89-2.05c2.48,0,3.67,1.69,3.67,4.21v13.93h-2.7V96.88c0-1.55-.65-2.77-2.27-2.77s-2.48,1.55-2.48,3.28v12.24h-2.7V96.88c0-1.12-.43-2.77-2.23-2.77S19,95.73,19,97.39v12.24h-2.7V91.77H19Z"/><path class="cls-1" d="M45.88,107.86h0a4.63,4.63,0,0,1-4,2.05c-2.84,0-3.67-2.16-3.67-5,0-3.78,1.22-5.9,5.22-5.9a24.08,24.08,0,0,1,2.52.14V96.52a2.4,2.4,0,0,0-2.52-2.41,2.36,2.36,0,0,0-2.45,2.2H38.33c0-3,2.3-4.82,5.22-4.82,4.14,0,5,3.06,5,5.36v12.78h-2.7v-1.76Zm0-6.73a14.79,14.79,0,0,0-1.84-.18c-1.55,0-3.2.83-3.2,3.46s0.76,3.2,2.3,3.2c1.12,0,2.74-1.48,2.74-3.35v-3.13Z"/><path class="cls-1" d="M55.78,91.77v2.81c1.91-2.59,3.56-3.06,5-3.1v3h-0.5c-2,0-4.46.79-4.46,4.72v10.4h-2.7V91.77h2.7Z"/><path class="cls-1" d="M68.2,86.33v5.44h2.52v2.16H68.2v10.83a2.57,2.57,0,0,0,.72,2,2.6,2.6,0,0,0,1.69.43H70.9v2.45H70.11c-1,0-2.7,0-3.67-1.12a4.88,4.88,0,0,1-.94-3.42V93.93H63.6V91.77H65.5V86.33h2.7Z"/><path class="cls-1" d="M74.69,90.8c0-1.87.14-3.67,1.8-5.22a6.72,6.72,0,0,1,8.5,0c1.66,1.55,1.8,3.35,1.8,5.22v12.45c0,1.87-.14,3.67-1.8,5.22a6.72,6.72,0,0,1-8.5,0c-1.66-1.55-1.8-3.35-1.8-5.22V90.8Zm9.39-.58a3.24,3.24,0,0,0-.94-2.63,3.68,3.68,0,0,0-4.82,0,3.24,3.24,0,0,0-.94,2.63v13.61a3.35,3.35,0,0,0,.94,2.66,3.8,3.8,0,0,0,4.82,0,3.36,3.36,0,0,0,.94-2.66V90.22Z"/><path class="cls-1" d="M100.38,90.47a4.6,4.6,0,0,0-.76-2.74,2.94,2.94,0,0,0-2.41-1,3,3,0,0,0-2.2.83,4.18,4.18,0,0,0-.94,3.06,5.82,5.82,0,0,0,.65,3,4.12,4.12,0,0,0,2,1.37L99,95.8a6.44,6.44,0,0,1,3.2,2.12,6.58,6.58,0,0,1,1,4.18V103a8,8,0,0,1-1.66,5.4,6.21,6.21,0,0,1-4.5,1.58c-2.48,0-4.07-.9-4.86-2a7.81,7.81,0,0,1-1.08-4.17v-0.9h2.7v0.72a4.6,4.6,0,0,0,.72,2.66,3.14,3.14,0,0,0,2.48,1,3.27,3.27,0,0,0,2.77-1.12,4.65,4.65,0,0,0,.72-2.92v-1a5,5,0,0,0-.72-3A4.3,4.3,0,0,0,97.75,98L95,97a4.86,4.86,0,0,1-3.13-2.7,9.12,9.12,0,0,1-.5-3.56V90a6,6,0,0,1,1.8-4.5,5.68,5.68,0,0,1,4.14-1.44c3.46,0,5.76,2.23,5.76,6.26v0.86h-2.7V90.47Z"/><path class="cls-1" d="M33.8,69.91H32.15V68.57h4.73v1.34H35.23v8.62H33.8V69.91Z"/><path class="cls-1" d="M39.17,68.57h2.3q2.52,0,2.52,2.93A3.7,3.7,0,0,1,43.72,73a2.11,2.11,0,0,1-1,1l1.54,4.55H42.79l-1.33-4.26H40.6v4.26H39.17v-10ZM40.6,73h0.81a1.43,1.43,0,0,0,.6-0.1,0.77,0.77,0,0,0,.34-0.3,1.28,1.28,0,0,0,.16-0.48,5.29,5.29,0,0,0,0-1.33,1.2,1.2,0,0,0-.18-0.49A0.79,0.79,0,0,0,42,70a1.71,1.71,0,0,0-.63-0.1H40.6V73Z"/><path class="cls-1" d="M46.72,68.57h1.43v10H46.72v-10Z"/><path class="cls-1" d="M52.12,69.91H50.47V68.57H55.2v1.34H53.55v8.62H52.12V69.91Z"/><path class="cls-1" d="M57.41,70.92a2.56,2.56,0,0,1,.21-1.06,2.22,2.22,0,0,1,.55-0.76,2.41,2.41,0,0,1,.77-0.46,2.49,2.49,0,0,1,1.72,0,2.41,2.41,0,0,1,.77.46,2.22,2.22,0,0,1,.55.76,2.55,2.55,0,0,1,.21,1.06v5.26A2.53,2.53,0,0,1,62,77.25a2.23,2.23,0,0,1-.55.76,2.37,2.37,0,0,1-.77.46,2.48,2.48,0,0,1-1.72,0A2.37,2.37,0,0,1,58.17,78a2.23,2.23,0,0,1-.55-0.76,2.54,2.54,0,0,1-.21-1.07V70.92Zm1.43,5.26a1,1,0,0,0,.29.76,1.06,1.06,0,0,0,1.36,0,1,1,0,0,0,.29-0.76V70.92a1,1,0,0,0-.29-0.76,1.06,1.06,0,0,0-1.36,0,1,1,0,0,0-.29.76v5.26Z"/><path class="cls-1" d="M64.79,68.57h1.37l2.16,6h0v-6h1.43v10H68.43l-2.18-6h0v6H64.79v-10Z"/><rect class="cls-1" x="24.58" width="52.88" height="52.88" rx="2.44" ry="2.44"/><polyline class="cls-2" points="51.97 32.61 51.97 44.1 70.22 44.1 70.22 25.85 33.72 25.85 33.72 7.6 51.97 7.6 51.97 21.09"/></svg>