<svg id="Layer_1" data-name="Layer 1" xmlns="http://www.w3.org/2000/svg" width="220.27" height="43.85" viewBox="0 0 220.27 43.85"><defs><style>.cls-1{fill:#f28f24;}.cls-2{fill:#f28f23;}.cls-3{fill:#011b2a;}</style></defs><title>stack-cp-logo</title><path class="cls-1" d="M70.16,24.85a2.74,2.74,0,0,0-2.79-3c-2.69,0-2.92,2.31-2.92,3.6V38.28c0,0.85.37,3.09,2.75,3.09,1.33,0,3-.58,3-3.33V37.29h2.58v0.88c0,3.4-1.56,5.68-5.64,5.68-4.76,0-5.2-3.88-5.2-5.24V24.54a5,5,0,0,1,5.34-5.17c3,0,5.41,1.43,5.41,5.2v1.53H70.16V24.85Z"/><path class="cls-1" d="M76.25,31.14a4.86,4.86,0,0,1,9.72,0V39a4.86,4.86,0,0,1-9.72,0V31.14Zm7.17,0.48c0-1.87-1.05-2.75-2.31-2.75s-2.31.88-2.31,2.75v6.93c0,1.77.82,2.75,2.31,2.75s2.31-.92,2.31-2.75V31.61Z"/><path class="cls-1" d="M90,26.65H92.5v1.67a4.48,4.48,0,0,1,3.64-1.94c3,0,3.54,2.28,3.54,3.91V43.51H97.12v-12c0-1.29-.51-2.62-2.14-2.62-2.07,0-2.48,2-2.48,3.09V43.51H90V26.65Z"/><path class="cls-1" d="M107.3,21.52v5.13h2.38v2H107.3V38.92a2.42,2.42,0,0,0,.68,1.87,2.45,2.45,0,0,0,1.6.41h0.27v2.31h-0.75c-1,0-2.55,0-3.47-1.05a4.61,4.61,0,0,1-.88-3.23V28.69H103v-2h1.8V21.52h2.55Z"/><path class="cls-1" d="M120.37,41.85h0a4.37,4.37,0,0,1-3.81,1.94c-2.69,0-3.47-2-3.47-4.73,0-3.57,1.16-5.58,4.93-5.58a22.71,22.71,0,0,1,2.38.14V31.14A2.27,2.27,0,0,0,118,28.86a2.22,2.22,0,0,0-2.31,2.07h-2.45c0-2.86,2.18-4.56,4.93-4.56,3.91,0,4.76,2.89,4.76,5.06V43.51h-2.55V41.85Zm0-6.36a14,14,0,0,0-1.73-.17c-1.46,0-3,.78-3,3.26s0.71,3,2.18,3a3.2,3.2,0,0,0,2.58-3.16v-3Z"/><path class="cls-1" d="M129.56,20.19v2.48H127V20.19h2.55ZM127,26.65h2.55V43.51H127V26.65Z"/><path class="cls-1" d="M133.63,26.65h2.55v1.67a4.48,4.48,0,0,1,3.64-1.94c3,0,3.54,2.28,3.54,3.91V43.51h-2.55v-12c0-1.29-.51-2.62-2.14-2.62-2.07,0-2.48,2-2.48,3.09V43.51h-2.55V26.65Z"/><path class="cls-1" d="M154.39,38.79h2.55V39c0,1.67-.78,4.76-4.69,4.76a4.65,4.65,0,0,1-4.93-4.9V31.07a4.52,4.52,0,0,1,4.76-4.69A4.73,4.73,0,0,1,157,31.21V36h-7.14v2.69c0,1.8.82,2.58,2.38,2.58A2,2,0,0,0,154.39,39v-0.2Zm0.07-4.66V31.24a2.15,2.15,0,0,0-2.28-2.38,2.28,2.28,0,0,0-2.31,2.52v2.75h4.59Z"/><path class="cls-1" d="M163.39,26.65V29.3c1.8-2.45,3.37-2.89,4.69-2.92v2.86h-0.47c-1.87,0-4.22.75-4.22,4.45v9.83h-2.55V26.65h2.55Z"/><path class="cls-1" d="M171.46,19.71h5.17c4.28,0,5.88,2.79,5.88,6.05v2.11c0,3.06-2,5.81-5.37,5.81H174v9.83h-2.55V19.71ZM174,31.51h2.41A3.23,3.23,0,0,0,180,28.28V25.46c0-2.18-1.12-3.54-3.5-3.54H174v9.59Z"/><path class="cls-1" d="M188.64,20.19v2.48h-2.55V20.19h2.55Zm-2.55,6.46h2.55V43.51h-2.55V26.65Z"/><path class="cls-1" d="M195.25,19.71V39.3a1.74,1.74,0,0,0,1.87,1.87h0.38v2.35h-0.78c-2.58,0-4-1.53-4-3.74V19.71h2.55Z"/><path class="cls-1" d="M200.58,31.14a4.86,4.86,0,0,1,9.72,0V39a4.86,4.86,0,0,1-9.72,0V31.14Zm7.17,0.48c0-1.87-1.05-2.75-2.31-2.75s-2.31.88-2.31,2.75v6.93c0,1.77.82,2.75,2.31,2.75s2.31-.92,2.31-2.75V31.61Z"/><path class="cls-1" d="M217.72,21.52v5.13h2.38v2h-2.38V38.92a2.43,2.43,0,0,0,.68,1.87,2.45,2.45,0,0,0,1.6.41h0.27v2.31h-0.75c-1,0-2.55,0-3.47-1.05a4.61,4.61,0,0,1-.88-3.23V28.69h-1.8v-2h1.8V21.52h2.55Z"/><path class="cls-1" d="M61.17,6.22H59.75V5.07h4.06V6.22H62.39v7.39H61.17V6.22Z"/><path class="cls-1" d="M65.78,5.07h2q2.16,0,2.16,2.51a3.16,3.16,0,0,1-.23,1.28,1.81,1.81,0,0,1-.82.86l1.32,3.9h-1.3L67.74,10H67v3.65H65.78V5.07ZM67,8.89h0.7a1.24,1.24,0,0,0,.52-0.09,0.66,0.66,0,0,0,.29-0.26,1.1,1.1,0,0,0,.14-0.41,4.52,4.52,0,0,0,0-1.14,1,1,0,0,0-.15-0.42,0.68,0.68,0,0,0-.32-0.26,1.45,1.45,0,0,0-.54-0.08H67V8.89Z"/><path class="cls-1" d="M72.26,5.07h1.22v8.54H72.26V5.07Z"/><path class="cls-1" d="M76.9,6.22H75.48V5.07h4.06V6.22H78.12v7.39H76.9V6.22Z"/><path class="cls-1" d="M81.44,7.09a2.2,2.2,0,0,1,.18-0.91,1.9,1.9,0,0,1,.47-0.65,2,2,0,0,1,.66-0.39,2.12,2.12,0,0,1,1.48,0,2,2,0,0,1,.66.39,1.9,1.9,0,0,1,.47.65,2.18,2.18,0,0,1,.18.91V11.6a2.17,2.17,0,0,1-.18.92,1.91,1.91,0,0,1-.47.65,2,2,0,0,1-.66.39,2.13,2.13,0,0,1-1.48,0,2,2,0,0,1-.66-0.39,1.91,1.91,0,0,1-.47-0.65,2.19,2.19,0,0,1-.18-0.92V7.09Zm1.22,4.51a0.81,0.81,0,0,0,.25.65,0.91,0.91,0,0,0,1.16,0,0.81,0.81,0,0,0,.25-0.65V7.09a0.81,0.81,0,0,0-.25-0.65,0.91,0.91,0,0,0-1.16,0,0.81,0.81,0,0,0-.25.65V11.6Z"/><path class="cls-1" d="M87.77,5.07h1.18l1.85,5.15h0V5.07H92v8.54H90.89L89,8.48h0v5.14H87.77V5.07Z"/><path class="cls-2" d="M27.61,2L47.83,37a4,4,0,0,1-3.43,5.94H4A4,4,0,0,1,.54,37L20.75,2A4,4,0,0,1,27.61,2Z"/><path class="cls-3" d="M24.18,9.06a0.21,0.21,0,0,1,.2.15L26,14.43V20L37.65,28.5v3.14l-7.27-4.3H26l-1.1,7.33,4.19,1.86v1.85l-5-1.2-4.92,1.2V36.53l4.19-1.86-1.1-7.33H18l-7.27,4.3V28.5L22.32,20V14.43L24,9.21a0.21,0.21,0,0,1,.2-0.15m0-2h0A2.2,2.2,0,0,0,22.07,8.6l-1.66,5.22-0.09.6V19L9.53,26.89,8.71,28.5v3.14l3,1.72,6.8-4H20.6l0.62,4.12-2.8,1.24-1.19,1.83v1.85l2.47,1.94,4.45-1.08,4.5,1.08,2.47-1.94V36.53L29.94,34.7l-2.8-1.24,0.62-4.12h2.07l6.8,4,3-1.72V28.5l-0.82-1.61L28,19V14.43l-0.09-.6L26.29,8.6a2.2,2.2,0,0,0-2.11-1.54h0Z"/></svg>